{
  "accessors": [
    {
      "bufferView": 2,
      "componentType": 5126,
      "count": 28154,
      "max": [
        14.75064754486084,
        -0.15214499831199646,
        11.272006034851074
      ],
      "min": [
        -16.330520629882813,
        -21.444507598876953,
        -7.09183406829834
      ],
      "type": "VEC3"
    },
    {
      "bufferView": 2,
      "byteOffset": 337848,
      "componentType": 5126,
      "count": 28154,
      "max": [
        0.9999526143074036,
        0.9999915361404419,
        0.9999971985816956
      ],
      "min": [
        -0.998993992805481,
        -0.999986469745636,
        -0.9999943971633911
      ],
      "type": "VEC3"
    },
    {
      "bufferView": 3,
      "componentType": 5126,
      "count": 28154,
      "max": [
        0.749019980430603,
        0.749019980430603,
        0.749019980430603,
        1.0
      ],
      "min": [
        0.749019980430603,
        0.749019980430603,
        0.749019980430603,
        1.0
      ],
      "type": "VEC4"
    },
    {
      "bufferView": 1,
      "componentType": 5126,
      "count": 28154,
      "max": [
        0.9847339987754822,
        0.9980379939079285
      ],
      "min": [
        0.0019710001070052385,
        0.17405499517917633
      ],
      "type": "VEC2"
    },
    {
      "bufferView": 0,
      "componentType": 5125,
      "count": 164658,
      "type": "SCALAR"
    },
    {
      "bufferView": 2,
      "byteOffset": 675696,
      "componentType": 5126,
      "count": 26667,
      "max": [
        11.261879920959473,
        -0.1864739954471588,
        11.189180374145508
      ],
      "min": [
        -17.07342529296875,
        -21.853370666503906,
        -6.8744797706604
      ],
      "type": "VEC3"
    },
    {
      "bufferView": 2,
      "byteOffset": 995700,
      "componentType": 5126,
      "count": 26667,
      "max": [
        0.9932051301002502,
        0.9998966455459595,
        0.9996452331542969
      ],
      "min": [
        -0.998993992805481,
        -0.9999672174453735,
        -0.999850332736969
      ],
      "type": "VEC3"
    },
    {
      "bufferView": 3,
      "byteOffset": 450464,
      "componentType": 5126,
      "count": 26667,
      "max": [
        0.749019980430603,
        0.749019980430603,
        0.749019980430603,
        1.0
      ],
      "min": [
        0.749019980430603,
        0.749019980430603,
        0.749019980430603,
        1.0
      ],
      "type": "VEC4"
    },
    {
      "bufferView": 1,
      "byteOffset": 225232,
      "componentType": 5126,
      "count": 26667,
      "max": [
        0.9795759916305542,
        0.9978910088539124
      ],
      "min": [
        0.001998000079765916,
        0.14839200675487518
      ],
      "type": "VEC2"
    },
    {
      "bufferView": 0,
      "byteOffset": 658632,
      "componentType": 5125,
      "count": 157386,
      "type": "SCALAR"
    },
    {
      "bufferView": 2,
      "byteOffset": 1315704,
      "componentType": 5126,
      "count": 35,
      "max": [
        -15.33306884765625,
        -11.461867332458496,
        8.41891098022461
      ],
      "min": [
        -17.07342529296875,
        -20.169408798217773,
        -0.4838959872722626
      ],
      "type": "VEC3"
    },
    {
      "bufferView": 2,
      "byteOffset": 1316124,
      "componentType": 5126,
      "count": 35,
      "max": [
        0.5688168406486511,
        0.08715305477380753,
        0.637788712978363
      ],
      "min": [
        -0.9968283772468567,
        -0.9178648591041565,
        -0.7428624033927917
      ],
      "type": "VEC3"
    },
    {
      "bufferView": 3,
      "byteOffset": 877136,
      "componentType": 5126,
      "count": 35,
      "max": [
        0.749019980430603,
        0.749019980430603,
        0.749019980430603,
        1.0
      ],
      "min": [
        0.749019980430603,
        0.749019980430603,
        0.749019980430603,
        1.0
      ],
      "type": "VEC4"
    },
    {
      "bufferView": 1,
      "byteOffset": 438568,
      "componentType": 5126,
      "count": 35,
      "max": [
        0.5,
        0.5
      ],
      "min": [
        0.5,
        0.5
      ],
      "type": "VEC2"
    },
    {
      "bufferView": 0,
      "byteOffset": 1288176,
      "componentType": 5125,
      "count": 99,
      "type": "SCALAR"
    }
  ],
  "asset": {
    "extras": {
      "author": "alban (https://sketchfab.com/alban)",
      "license": "CC-BY-4.0 (http://creativecommons.org/licenses/by/4.0/)",
      "source": "https://sketchfab.com/3d-models/challenger-boxing-glove-b9b8b6aebfd146b8a11f840b2f8d0cca",
      "title": "Challenger boxing glove"
    },
    "generator": "Sketchfab-12.64.0",
    "version": "2.0"
  },
  "bufferViews": [
    {
      "buffer": 0,
      "byteLength": 1288572,
      "name": "floatBufferViews",
      "target": 34963
    },
    {
      "buffer": 0,
      "byteLength": 438848,
      "byteOffset": 1288572,
      "byteStride": 8,
      "name": "floatBufferViews",
      "target": 34962
    },
    {
      "buffer": 0,
      "byteLength": 1316544,
      "byteOffset": 1727420,
      "byteStride": 12,
      "name": "floatBufferViews",
      "target": 34962
    },
    {
      "buffer": 0,
      "byteLength": 877696,
      "byteOffset": 3043964,
      "byteStride": 16,
      "name": "floatBufferViews",
      "target": 34962
    }
  ],
  "buffers": [
    {
      "byteLength": 3921660,
      "uri": "scene.bin"
    }
  ],
  "extensionsUsed": [
    "KHR_materials_unlit"
  ],
  "images": [
    {
      "uri": "textures/material_0_baseColor.jpeg"
    },
    {
      "uri": "textures/material_1_baseColor.jpeg"
    },
    {
      "uri": "textures/material_2_baseColor.png"
    }
  ],
  "materials": [
    {
      "doubleSided": true,
      "extensions": {
        "KHR_materials_unlit": {}
      },
      "name": "material_0",
      "pbrMetallicRoughness": {
        "baseColorTexture": {
          "index": 0
        },
        "metallicFactor": 0.0
      }
    },
    {
      "doubleSided": true,
      "extensions": {
        "KHR_materials_unlit": {}
      },
      "name": "material_1",
      "pbrMetallicRoughness": {
        "baseColorTexture": {
          "index": 1
        },
        "metallicFactor": 0.0
      }
    },
    {
      "alphaMode": "BLEND",
      "doubleSided": true,
      "extensions": {
        "KHR_materials_unlit": {}
      },
      "name": "material_2",
      "pbrMetallicRoughness": {
        "baseColorFactor": [
          1.0,
          1.0,
          1.0,
          0.956863
        ],
        "baseColorTexture": {
          "index": 2
        },
        "metallicFactor": 0.0
      }
    }
  ],
  "meshes": [
    {
      "name": "Object_0",
      "primitives": [
        {
          "attributes": {
            "COLOR_0": 2,
            "NORMAL": 1,
            "POSITION": 0,
            "TEXCOORD_0": 3
          },
          "indices": 4,
          "material": 0,
          "mode": 4
        }
      ]
    },
    {
      "name": "Object_1",
      "primitives": [
        {
          "attributes": {
            "COLOR_0": 7,
            "NORMAL": 6,
            "POSITION": 5,
            "TEXCOORD_0": 8
          },
          "indices": 9,
          "material": 1,
          "mode": 4
        }
      ]
    },
    {
      "name": "Object_2",
      "primitives": [
        {
          "attributes": {
            "COLOR_0": 12,
            "NORMAL": 11,
            "POSITION": 10,
            "TEXCOORD_0": 13
          },
          "indices": 14,
          "material": 2,
          "mode": 4
        }
      ]
    }
  ],
  "nodes": [
    {
      "children": [
        1
      ],
      "matrix": [
        0.9759272336959839,
        0.1891424506902695,
        -0.10858710110187526,
        0.0,
        -0.21809636056423187,
        0.8463656306266786,
        -0.48590037226676924,
        0.0,
        -1.3877787807814457e-17,
        0.4978858530521391,
        0.8672425746917726,
        0.0,
        -2.427619457244873,
        10.377054214477539,
        3.513358831405642,
        1.0
      ],
      "name": "Sketchfab_model"
    },
    {
      "children": [
        2,
        3,
        4
      ],
      "name": "mesh.obj.cleaner"
    },
    {
      "mesh": 0,
      "name": "Object_2"
    },
    {
      "mesh": 1,
      "name": "Object_3"
    },
    {
      "mesh": 2,
      "name": "Object_4"
    }
  ],
  "samplers": [
    {
      "magFilter": 9729,
      "minFilter": 9987,
      "wrapS": 10497,
      "wrapT": 10497
    },
    {
      "magFilter": 9728,
      "minFilter": 9728,
      "wrapS": 33071,
      "wrapT": 33071
    }
  ],
  "scene": 0,
  "scenes": [
    {
      "name": "Sketchfab_Scene",
      "nodes": [
        0
      ]
    }
  ],
  "textures": [
    {
      "sampler": 0,
      "source": 0
    },
    {
      "sampler": 0,
      "source": 1
    },
    {
      "sampler": 1,
      "source": 2
    }
  ]
}
